<?xml version="1.0" encoding="UTF-8" standalone="no"?>
<!DOCTYPE svg PUBLIC "-//W3C//DTD SVG 1.1//EN" "http://www.w3.org/Graphics/SVG/1.1/DTD/svg11.dtd">
<!-- Generated by Microsoft Visio, SVG Export nbiot_uplink.svg Page-1 -->
<svg xmlns="http://www.w3.org/2000/svg" xmlns:xlink="http://www.w3.org/1999/xlink" xmlns:ev="http://www.w3.org/2001/xml-events"
		xmlns:v="http://schemas.microsoft.com/visio/2003/SVGExtensions/" width="5.51561in" height="2.69868in"
		viewBox="0 0 397.124 194.305" xml:space="preserve" color-interpolation-filters="sRGB" class="st18">
	<v:documentProperties v:langID="1033" v:viewMarkup="false">
		<v:userDefs>
			<v:ud v:nameU="msvNoAutoConnect" v:val="VT0(1):26"/>
		</v:userDefs>
	</v:documentProperties>

	<style type="text/css">
	<![CDATA[
		.st1 {fill:#0d1117;stroke:none;stroke-linecap:round;stroke-linejoin:round;stroke-width:0.75}
		.st2 {fill:#ffffff;stroke:#000000;stroke-linecap:round;stroke-linejoin:round;stroke-width:0.5}
		.st3 {fill:#ffffff}
		.st4 {fill:#000000}
		.st5 {marker-end:url(#mrkr5-37);stroke:#ffffff;stroke-linecap:round;stroke-linejoin:round;stroke-width:0.75}
		.st6 {fill:#ffffff;fill-opacity:1;stroke:#ffffff;stroke-opacity:1;stroke-width:0.22935779816514}
		.st7 {fill:none;marker-end:url(#mrkr5-41);stroke:none;stroke-linecap:round;stroke-linejoin:round;stroke-width:0.75}
		.st8 {fill:#000000;fill-opacity:1;stroke:#000000;stroke-opacity:1;stroke-width:0.22935779816514}
		.st9 {fill:#ffffff;font-family:Times New Roman;font-size:1.00001em}
		.st10 {fill:#000000;stroke:#00ff02;stroke-linecap:round;stroke-linejoin:round;stroke-width:0.75}
		.st11 {fill:#00ff02;stroke:#000000;stroke-linecap:round;stroke-linejoin:round;stroke-width:0.25}
		.st12 {fill:#000000;stroke:#00ff02;stroke-linecap:round;stroke-linejoin:round;stroke-width:1}
		.st13 {fill:none;marker-end:url(#mrkr5-72);stroke:#006402;stroke-linecap:round;stroke-linejoin:round;stroke-width:1}
		.st14 {fill:#006402;fill-opacity:1;stroke:#006402;stroke-opacity:1;stroke-width:0.28409090909091}
		.st15 {fill:#00ff02;font-family:Times New Roman;font-size:1.00001em}
		.st16 {marker-end:url(#mrkr5-87);stroke:#00ff02;stroke-linecap:round;stroke-linejoin:round;stroke-width:0.75}
		.st17 {fill:#00ff02;fill-opacity:1;stroke:#00ff02;stroke-opacity:1;stroke-width:0.22935779816514}
		.st18 {fill:none;fill-rule:evenodd;font-size:12px;overflow:visible;stroke-linecap:square;stroke-miterlimit:3}
	]]>
	</style>

	<defs id="Markers">
		<g id="lend5">
			<path d="M 2 1 L 0 0 L 1.98117 -0.993387 C 1.67173 -0.364515 1.67301 0.372641 1.98465 1.00043 " style="stroke:none"/>
		</g>
		<marker id="mrkr5-37" class="st6" v:arrowType="5" v:arrowSize="2" v:setback="7.63" refX="-7.63" orient="auto"
				markerUnits="strokeWidth" overflow="visible">
			<use xlink:href="#lend5" transform="scale(-4.36,-4.36) "/>
		</marker>
		<marker id="mrkr5-41" class="st8" v:arrowType="5" v:arrowSize="2" v:setback="7.63" refX="-7.63" orient="auto"
				markerUnits="strokeWidth" overflow="visible">
			<use xlink:href="#lend5" transform="scale(-4.36,-4.36) "/>
		</marker>
		<marker id="mrkr5-72" class="st14" v:arrowType="5" v:arrowSize="2" v:setback="6.16" refX="-6.16" orient="auto"
				markerUnits="strokeWidth" overflow="visible">
			<use xlink:href="#lend5" transform="scale(-3.52,-3.52) "/>
		</marker>
		<marker id="mrkr5-87" class="st17" v:arrowType="5" v:arrowSize="2" v:setback="7.63" refX="-7.63" orient="auto"
				markerUnits="strokeWidth" overflow="visible">
			<use xlink:href="#lend5" transform="scale(-4.36,-4.36) "/>
		</marker>
	</defs>
	<g v:mID="4" v:index="1" v:groupContext="backgroundPage">
		<v:userDefs>
			<v:ud v:nameU="msvVisioCreated" v:prompt="" v:val="VT0(0):26"/>
		</v:userDefs>
		<title>VBackground-1</title>
		<v:pageProperties width="5.51561" height="2.69868" v:drawingScale="1" v:pageScale="1" v:drawingUnits="19"
				v:shadowOffsetX="9" v:shadowOffsetY="-9"/>
		<g id="shape1-1" v:mID="1" v:groupContext="shape">
			<title>Solid</title>
			<v:userDefs>
				<v:ud v:nameU="Background" v:val="VT0(0):26"/>
				<v:ud v:nameU="visVersion" v:val="VT0(15):26"/>
				<v:ud v:nameU="msvShapeCategories" v:prompt="" v:val="VT4(DoNotContain)"/>
				<v:ud v:nameU="msvVisioCreated" v:prompt="" v:val="VT0(0):26"/>
			</v:userDefs>
			<rect x="0" y="0" width="397.124" height="194.305" class="st1"/>
		</g>
	</g>
	<g v:mID="0" v:index="2" v:groupContext="foregroundPage">
		<title>Page-1</title>
		<v:pageProperties v:drawingScale="1" v:pageScale="1" v:drawingUnits="19" v:shadowOffsetX="9" v:shadowOffsetY="-9"/>
		<g id="group1-3" transform="translate(287.645,-115.06)" v:mID="1" v:groupContext="group">
			<v:custProps>
				<v:cp v:nameU="AssetNumber" v:lbl="Asset Number" v:prompt="" v:type="0" v:format="" v:sortKey="Asset"
						v:invis="false" v:ask="false" v:langID="1033" v:cal="0"/>
				<v:cp v:nameU="SerialNumber" v:lbl="Serial Number" v:prompt="" v:type="0" v:format="" v:sortKey="Asset"
						v:invis="false" v:ask="false" v:langID="1033" v:cal="0"/>
				<v:cp v:nameU="Location" v:lbl="Location" v:prompt="" v:type="0" v:format="" v:sortKey="Asset" v:invis="false"
						v:ask="false" v:langID="1033" v:cal="0"/>
				<v:cp v:nameU="Building" v:lbl="Building" v:prompt="" v:type="0" v:format="" v:sortKey="Asset" v:invis="false"
						v:ask="false" v:langID="1033" v:cal="0"/>
				<v:cp v:nameU="Room" v:lbl="Room" v:prompt="" v:type="0" v:format="" v:sortKey="Asset" v:invis="false"
						v:ask="false" v:langID="1033" v:cal="0"/>
				<v:cp v:nameU="Manufacturer" v:lbl="Manufacturer" v:prompt="" v:type="0" v:format="" v:sortKey="Equipment"
						v:invis="false" v:ask="false" v:langID="1033" v:cal="0"/>
				<v:cp v:nameU="ProductNumber" v:lbl="Product Number" v:prompt="" v:type="0" v:format="" v:sortKey="Equipment"
						v:invis="false" v:ask="false" v:langID="1033" v:cal="0"/>
				<v:cp v:nameU="PartNumber" v:lbl="Part Number" v:prompt="" v:type="0" v:format="" v:sortKey="Equipment"
						v:invis="false" v:ask="false" v:langID="1033" v:cal="0"/>
				<v:cp v:nameU="ProductDescription" v:lbl="Product Description" v:prompt="" v:type="0" v:format=""
						v:sortKey="Equipment" v:invis="false" v:ask="false" v:langID="1033" v:cal="0"/>
				<v:cp v:nameU="NetworkName" v:lbl="Network Name" v:prompt="" v:type="0" v:format="" v:sortKey="Network"
						v:invis="false" v:ask="false" v:langID="1033" v:cal="0"/>
				<v:cp v:nameU="IPAddress" v:lbl="IP Address" v:prompt="" v:type="0" v:format="" v:sortKey="Network" v:invis="false"
						v:ask="false" v:langID="1033" v:cal="0"/>
				<v:cp v:nameU="SubnetMask" v:lbl="Subnet Mask" v:prompt="" v:type="0" v:format="" v:sortKey="Network"
						v:invis="false" v:ask="false" v:langID="1033" v:cal="0"/>
				<v:cp v:nameU="AdminInterface" v:lbl="Administrative Interface" v:prompt="" v:type="0" v:format=""
						v:sortKey="Network" v:invis="false" v:ask="false" v:langID="1033" v:cal="0"/>
				<v:cp v:nameU="NumberofPorts" v:lbl="Number of Ports" v:prompt="" v:type="0" v:format="" v:sortKey="Network"
						v:invis="false" v:ask="false" v:langID="1033" v:cal="0"/>
				<v:cp v:nameU="CommunityString" v:lbl="Community String" v:prompt="" v:type="0" v:format="" v:sortKey="Network"
						v:invis="false" v:ask="false" v:langID="1033" v:cal="0"/>
				<v:cp v:nameU="NetworkDescription" v:lbl="Network Description" v:prompt="" v:type="0" v:format=""
						v:sortKey="Network" v:invis="false" v:ask="false" v:langID="1033" v:cal="0"/>
				<v:cp v:nameU="MACAddress" v:lbl="MAC Address" v:prompt="" v:type="0" v:format="" v:sortKey="Network"
						v:invis="false" v:ask="false" v:langID="1033" v:cal="0"/>
				<v:cp v:nameU="SSID" v:lbl="SSID" v:prompt="" v:type="0" v:format="" v:sortKey="Network" v:invis="false"
						v:ask="false" v:langID="1033" v:cal="0"/>
				<v:cp v:nameU="ShapeClass" v:lbl="ShapeClass" v:prompt="" v:type="0" v:format="" v:sortKey="" v:invis="true"
						v:ask="false" v:langID="1033" v:cal="0" v:val="VT4(Equipment)"/>
				<v:cp v:nameU="ShapeType" v:lbl="ShapeType" v:prompt="" v:type="0" v:format="" v:sortKey="" v:invis="true"
						v:ask="false" v:langID="1033" v:cal="0" v:val="VT4(Device)"/>
				<v:cp v:nameU="SubShapeType" v:lbl="SubShapeType" v:prompt="" v:type="0" v:format="" v:sortKey="" v:invis="true"
						v:ask="false" v:langID="1033" v:cal="0" v:val="VT4(AccessPoint)"/>
			</v:custProps>
			<v:userDefs>
				<v:ud v:nameU="visVersion" v:prompt="" v:val="VT0(15):26"/>
				<v:ud v:nameU="ShapeClass" v:prompt="" v:val="VT0(5):26"/>
				<v:ud v:nameU="SolSH" v:prompt="" v:val="VT15({BF0433D9-CD73-4EB5-8390-8653BE590246}):41"/>
				<v:ud v:nameU="visLegendShape" v:prompt="" v:val="VT0(2):26"/>
			</v:userDefs>
			<title>Wireless access point.40</title>
			<g id="shape2-4" v:mID="2" v:groupContext="shape" transform="translate(13.6828,-32.7828)">
				<title>Sheet.2</title>
				<path d="M34.72 177.69 C34.72 179.76 33.58 181.62 31.79 182.87 L33.24 184.28 C35.52 182.69 36.97 180.33 36.97 177.69
							 C36.97 175.04 35.51 172.68 33.23 171.09 L31.79 172.5 C33.58 173.75 34.72 175.61 34.72 177.69 ZM42.23
							 177.69 C42.23 181.65 40.05 185.2 36.63 187.58 L38.07 188.99 C41.98 186.27 44.47 182.22 44.47 177.69
							 C44.47 173.15 41.98 169.1 38.07 166.38 L36.62 167.79 C40.05 170.16 42.23 173.72 42.23 177.69 ZM43.51
							 161.07 L42.07 162.48 C47.33 166.13 50.68 171.59 50.68 177.69 C50.68 183.78 47.33 189.24 42.07 192.89
							 L43.52 194.3 C49.26 190.31 52.92 184.34 52.92 177.69 C52.92 171.03 49.26 165.06 43.51 161.07 ZM18.2
							 177.69 C18.2 175.61 19.34 173.74 21.14 172.5 L19.69 171.09 C17.41 172.67 15.95 175.04 15.95 177.69 C15.95
							 180.33 17.41 182.7 19.69 184.28 L21.13 182.87 C19.34 181.63 18.2 179.77 18.2 177.69 ZM10.69 177.69 C10.69
							 173.72 12.87 170.16 16.3 167.78 L14.86 166.37 C10.94 169.09 8.44 173.15 8.44 177.69 C8.44 182.22 10.94
							 186.28 14.85 189 L16.3 187.59 C12.87 185.21 10.69 181.65 10.69 177.69 ZM9.4 194.3 L10.85 192.9 C5.59
							 189.24 2.24 183.78 2.24 177.69 C2.24 171.59 5.59 166.13 10.86 162.47 L9.41 161.06 C3.66 165.06 0 171.03
							 0 177.69 C-0 184.34 3.66 190.31 9.4 194.3 Z" class="st2"/>
			</g>
			<g id="shape3-6" v:mID="3" v:groupContext="shape" transform="translate(35.7446,-38.2321)">
				<title>Sheet.3</title>
				<path d="M3.2 186.62 L3.2 194.3 L5.6 194.3 L5.6 186.62 C7.45 186.19 8.8 184.79 8.8 183.14 C8.8 181.14 6.83 179.52
							 4.4 179.52 C1.97 179.52 0 181.14 0 183.14 C0 184.79 1.35 186.19 3.2 186.62 Z" class="st3"/>
			</g>
			<g id="shape4-9" v:mID="4" v:groupContext="shape" transform="translate(28.0867,-2.84217E-13)">
				<title>Sheet.4</title>
				<path d="M24.11 194.3 L0 194.3 L7.78 156.07 L16.34 156.07 L24.11 194.3 Z" class="st2"/>
			</g>
		</g>
		<g id="group5-11" transform="translate(49.5729,-78.1263)" v:mID="5" v:groupContext="group">
			<title>Sheet.5</title>
			<g id="group6-12" v:mID="6" v:groupContext="group">
				<v:custProps>
					<v:cp v:nameU="AssetNumber" v:lbl="Asset Number" v:prompt="" v:type="0" v:format="" v:sortKey="Asset"
							v:invis="false" v:ask="false" v:langID="1033" v:cal="0"/>
					<v:cp v:nameU="SerialNumber" v:lbl="Serial Number" v:prompt="" v:type="0" v:format="" v:sortKey="Asset"
							v:invis="false" v:ask="false" v:langID="1033" v:cal="0"/>
					<v:cp v:nameU="Location" v:lbl="Location" v:prompt="" v:type="0" v:format="" v:sortKey="Asset" v:invis="false"
							v:ask="false" v:langID="1033" v:cal="0"/>
					<v:cp v:nameU="Building" v:lbl="Building" v:prompt="" v:type="0" v:format="" v:sortKey="Asset" v:invis="false"
							v:ask="false" v:langID="1033" v:cal="0"/>
					<v:cp v:nameU="Room" v:lbl="Room" v:prompt="" v:type="0" v:format="" v:sortKey="Asset" v:invis="false"
							v:ask="false" v:langID="1033" v:cal="0"/>
					<v:cp v:nameU="Manufacturer" v:lbl="Manufacturer" v:prompt="" v:type="0" v:format="" v:sortKey="Equipment"
							v:invis="false" v:ask="false" v:langID="1033" v:cal="0"/>
					<v:cp v:nameU="ProductNumber" v:lbl="Product Number" v:prompt="" v:type="0" v:format="" v:sortKey="Equipment"
							v:invis="false" v:ask="false" v:langID="1033" v:cal="0"/>
					<v:cp v:nameU="PartNumber" v:lbl="Part Number" v:prompt="" v:type="0" v:format="" v:sortKey="Equipment"
							v:invis="false" v:ask="false" v:langID="1033" v:cal="0"/>
					<v:cp v:nameU="ProductDescription" v:lbl="Product Description" v:prompt="" v:type="0" v:format=""
							v:sortKey="Equipment" v:invis="false" v:ask="false" v:langID="1033" v:cal="0"/>
					<v:cp v:nameU="NetworkName" v:lbl="Network Name" v:prompt="" v:type="0" v:format="" v:sortKey="Network"
							v:invis="false" v:ask="false" v:langID="1033" v:cal="0"/>
					<v:cp v:nameU="IPAddress" v:lbl="IP Address" v:prompt="" v:type="0" v:format="" v:sortKey="Network"
							v:invis="false" v:ask="false" v:langID="1033" v:cal="0"/>
					<v:cp v:nameU="SubnetMask" v:lbl="Subnet Mask" v:prompt="" v:type="0" v:format="" v:sortKey="Network"
							v:invis="false" v:ask="false" v:langID="1033" v:cal="0"/>
					<v:cp v:nameU="AdminInterface" v:lbl="Administrative Interface" v:prompt="" v:type="0" v:format=""
							v:sortKey="Network" v:invis="false" v:ask="false" v:langID="1033" v:cal="0"/>
					<v:cp v:nameU="NumberofPorts" v:lbl="Number of Ports" v:prompt="" v:type="0" v:format="" v:sortKey="Network"
							v:invis="false" v:ask="false" v:langID="1033" v:cal="0"/>
					<v:cp v:nameU="CommunityString" v:lbl="Community String" v:prompt="" v:type="0" v:format="" v:sortKey="Network"
							v:invis="false" v:ask="false" v:langID="1033" v:cal="0"/>
					<v:cp v:nameU="NetworkDescription" v:lbl="Network Description" v:prompt="" v:type="0" v:format=""
							v:sortKey="Network" v:invis="false" v:ask="false" v:langID="1033" v:cal="0"/>
					<v:cp v:nameU="MACAddress" v:lbl="MAC Address" v:prompt="" v:type="0" v:format="" v:sortKey="Network"
							v:invis="false" v:ask="false" v:langID="1033" v:cal="0"/>
					<v:cp v:nameU="CPU" v:lbl="CPU" v:prompt="" v:type="0" v:format="" v:sortKey="Workstation" v:invis="false"
							v:ask="false" v:langID="1033" v:cal="0"/>
					<v:cp v:nameU="Memory" v:lbl="Memory" v:prompt="" v:type="0" v:format="" v:sortKey="Workstation"
							v:invis="false" v:ask="false" v:langID="1033" v:cal="0"/>
					<v:cp v:nameU="OperatingSystem" v:lbl="Operating System" v:prompt="" v:type="0" v:format=""
							v:sortKey="Workstation" v:invis="false" v:ask="false" v:langID="1033" v:cal="0"/>
					<v:cp v:nameU="HardDriveSize" v:lbl="Hard Drive Capacity" v:prompt="" v:type="0" v:format=""
							v:sortKey="Workstation" v:invis="false" v:ask="false" v:langID="1033" v:cal="0"/>
					<v:cp v:nameU="ShapeClass" v:lbl="ShapeClass" v:prompt="" v:type="0" v:format="" v:sortKey="" v:invis="true"
							v:ask="false" v:langID="1033" v:cal="0" v:val="VT4(Equipment)"/>
					<v:cp v:nameU="ShapeType" v:lbl="ShapeType" v:prompt="" v:type="0" v:format="" v:sortKey="" v:invis="true"
							v:ask="false" v:langID="1033" v:cal="0" v:val="VT4(Computer)"/>
					<v:cp v:nameU="SubShapeType" v:lbl="SubShapeType" v:prompt="" v:type="0" v:format="" v:sortKey=""
							v:invis="true" v:ask="false" v:langID="1033" v:cal="0" v:val="VT4(Slate Device)"/>
				</v:custProps>
				<v:userDefs>
					<v:ud v:nameU="visVersion" v:prompt="" v:val="VT0(15):26"/>
					<v:ud v:nameU="ShapeClass" v:prompt="" v:val="VT0(5):26"/>
					<v:ud v:nameU="SolSH" v:prompt="" v:val="VT15({BF0433D9-CD73-4EB5-8390-8653BE590246}):41"/>
					<v:ud v:nameU="visLegendShape" v:prompt="" v:val="VT0(2):26"/>
				</v:userDefs>
				<title>Slate Device</title>
				<g id="shape7-13" v:mID="7" v:groupContext="shape" transform="translate(0,-6.00571)">
					<title>Sheet.7</title>
					<path d="M2.38 194.3 C1.64 194.3 0.95 193.8 0.88 193.19 C0.87 193.12 0 186.29 0 180.91 C0 175.4 0.87 168.7 0.87
								 168.64 C0.95 168.03 1.64 167.52 2.38 167.52 L44.79 167.52 C45.53 167.52 46.22 168.03 46.3 168.64
								 C46.3 168.7 47.17 175.54 47.17 180.91 C47.17 186.29 46.3 193.12 46.3 193.19 C46.22 193.8 45.53 194.3
								 44.79 194.3 L2.38 194.3 Z" class="st2"/>
				</g>
				<g id="shape8-15" v:mID="8" v:groupContext="shape" transform="translate(3.85686,-6.78891)">
					<title>Sheet.8</title>
					<v:userDefs>
						<v:ud v:nameU="SurroundingRegionColor" v:prompt="" v:val="VT0(1):26"/>
						<v:ud v:nameU="SurroundingRegionColor" v:prompt="" v:val="VT5(#ffffff)"/>
					</v:userDefs>
					<rect x="0" y="169.09" width="37.7387" height="25.2152" class="st2"/>
				</g>
				<g id="shape9-17" v:mID="9" v:groupContext="shape" transform="translate(8.16609,-11.522)">
					<title>Sheet.9</title>
					<v:userDefs>
						<v:ud v:nameU="SurroundingRegionColor" v:prompt="" v:val="VT0(1):26"/>
						<v:ud v:nameU="SurroundingRegionColor" v:prompt="" v:val="VT5(#ffffff)"/>
					</v:userDefs>
					<path d="M-0 194.3 L13.97 194.3 L13.97 189.32 L-0 189.32 L-0 194.3 ZM15.15 194.3 L29.12 194.3 L29.12 189.32 L15.15
								 189.32 L15.15 194.3 ZM15.15 188.27 L29.07 188.27 L29.07 183.29 L15.15 183.29 L15.15 188.27 ZM15.15
								 182.23 L29.12 182.23 L29.12 177.25 L15.15 177.25 L15.15 182.23 ZM7.51 188.27 L13.91 188.27 L13.91
								 183.29 L7.51 183.29 L7.51 188.27 ZM-0 188.27 L6.41 188.27 L6.41 183.29 L-0 183.29 L-0 188.27 ZM-0
								 182.23 L13.97 182.23 L13.97 177.25 L-0 177.25 L-0 182.23 Z" class="st2"/>
				</g>
				<g id="shape10-19" v:mID="10" v:groupContext="shape" transform="translate(43.1795,-23.6254)">
					<title>Sheet.10</title>
					<v:userDefs>
						<v:ud v:nameU="SurroundingRegionColor" v:prompt="" v:val="VT0(1):26"/>
						<v:ud v:nameU="SurroundingRegionColor" v:prompt="" v:val="VT5(#ffffff)"/>
					</v:userDefs>
					<path d="M1.72 193.6 a0.861449 0.708404 -180 1 0 -1.7229 0 a0.861449 0.708404 -180 1 0 1.7229 0 ZM1.72 191.02
								 a0.861449 0.708404 -180 1 0 -1.7229 0 a0.861449 0.708404 -180 1 0 1.7229 0 ZM1.72 188.44 a0.860965
								 0.708006 -180 1 0 -1.72193 0 a0.860965 0.708006 -180 1 0 1.72193 0 Z" class="st4"/>
				</g>
			</g>
			<g id="shape11-22" v:mID="11" v:groupContext="shape" transform="translate(26.052,-37.1985)">
				<title>Sheet.11</title>
				<path d="M1.99 189.83 C1.99 191.24 1.22 192.5 0 193.35 L0.98 194.3 C2.53 193.23 3.51 191.63 3.51 189.83 C3.51 188.04
							 2.53 186.44 0.98 185.36 L0 186.32 C1.22 187.16 1.99 188.42 1.99 189.83 Z" class="st2"/>
			</g>
			<g id="shape12-24" v:mID="12" v:groupContext="shape" transform="translate(29.3317,-34.0002)">
				<title>Sheet.12</title>
				<path d="M3.8 186.64 C3.8 189.33 2.32 191.73 0 193.35 L0.99 194.3 C3.64 192.46 5.33 189.71 5.33 186.64 C5.33 183.56
							 3.63 180.81 0.98 178.96 L0 179.92 C2.32 181.53 3.8 183.94 3.8 186.64 Z" class="st2"/>
			</g>
			<g id="shape13-26" v:mID="13" v:groupContext="shape" transform="translate(14.5277,-37.3707)">
				<title>Sheet.13</title>
				<path d="M1.52 189.83 C1.52 188.42 2.3 187.16 3.52 186.31 L2.54 185.36 C0.99 186.43 0 188.04 0 189.83 C0 191.62 0.99
							 193.23 2.53 194.3 L3.51 193.35 C2.3 192.5 1.52 191.24 1.52 189.83 Z" class="st2"/>
			</g>
			<g id="shape14-28" v:mID="14" v:groupContext="shape" transform="translate(9.43468,-34.1737)">
				<title>Sheet.14</title>
				<path d="M1.52 186.63 C1.52 183.94 3 181.53 5.33 179.92 L4.35 178.96 C1.69 180.81 0 183.56 0 186.63 C0 189.71 1.69
							 192.46 4.34 194.3 L5.32 193.35 C3 191.73 1.52 189.33 1.52 186.63 Z" class="st2"/>
			</g>
			<g id="shape15-30" v:mID="15" v:groupContext="shape" transform="translate(18.6704,-32.0606)">
				<title>Sheet.15</title>
				<path d="M4.64 194.3 L4.64 187.94 C6.16 187.59 7.28 186.43 7.28 185.06 C7.28 183.41 5.65 182.07 3.64 182.07 C1.63
							 182.07 0 183.41 0 185.06 C0 186.43 1.12 187.59 2.65 187.94 L2.65 194.3 L4.64 194.3 Z" class="st2"/>
			</g>
		</g>
		<g id="shape16-32" v:mID="16" v:groupContext="shape" transform="translate(49.036,-118.98) rotate(-11.0781)">
			<title>Sheet.16</title>
			<path d="M0 194.3 L209.03 194.3" class="st5"/>
		</g>
		<g id="shape17-38" v:mID="17" v:groupContext="shape" transform="translate(58.0514,-68.0107)">
			<title>Sheet.17</title>
			<desc>UE</desc>
			<v:textBlock v:margins="rect(4,4,4,4)"/>
			<v:textRect cx="15.1083" cy="188.215" width="30.22" height="12.1789"/>
			<rect x="0" y="182.126" width="30.2166" height="12.1789" class="st7"/>
			<text x="7.11" y="191.82" class="st9" v:langID="1033"><v:paragraph v:horizAlign="1"/><v:tabList/>UE</text>		</g>
		<g id="shape18-43" v:mID="18" v:groupContext="shape" transform="translate(285.77,-96.9641)">
			<title>Sheet.18</title>
			<desc>Node B</desc>
			<v:textBlock v:margins="rect(4,4,4,4)"/>
			<v:textRect cx="42.0832" cy="186.081" width="84.17" height="16.4468"/>
			<rect x="0" y="177.858" width="84.1665" height="16.4468" class="st7"/>
			<text x="23.58" y="189.68" class="st9" v:langID="1033"><v:paragraph v:horizAlign="1"/><v:tabList/>Node B</text>		</g>
		<g id="shape19-47" v:mID="19" v:groupContext="shape" transform="translate(112.037,-130.803) rotate(-11)">
			<title>Sheet.19</title>
			<desc>ISI Channel</desc>
			<v:textBlock v:margins="rect(4,4,4,4)"/>
			<v:textRect cx="40.1434" cy="188.215" width="80.29" height="12.1789"/>
			<rect x="0" y="182.126" width="80.2868" height="12.1789" class="st7"/>
			<text x="11.31" y="191.82" class="st9" v:langID="1033"><v:paragraph v:horizAlign="1"/><v:tabList/>ISI Channel</text>		</g>
		<g id="group20-51" transform="translate(303.645,-33.8817)" v:mID="20" v:groupContext="group">
			<v:custProps>
				<v:cp v:nameU="AssetNumber" v:lbl="Asset Number" v:prompt="" v:type="0" v:format="" v:sortKey="Asset"
						v:invis="false" v:ask="false" v:langID="1033" v:cal="0"/>
				<v:cp v:nameU="SerialNumber" v:lbl="Serial Number" v:prompt="" v:type="0" v:format="" v:sortKey="Asset"
						v:invis="false" v:ask="false" v:langID="1033" v:cal="0"/>
				<v:cp v:nameU="Location" v:lbl="Location" v:prompt="" v:type="0" v:format="" v:sortKey="Asset" v:invis="false"
						v:ask="false" v:langID="1033" v:cal="0"/>
				<v:cp v:nameU="Building" v:lbl="Building" v:prompt="" v:type="0" v:format="" v:sortKey="Asset" v:invis="false"
						v:ask="false" v:langID="1033" v:cal="0"/>
				<v:cp v:nameU="Room" v:lbl="Room" v:prompt="" v:type="0" v:format="" v:sortKey="Asset" v:invis="false"
						v:ask="false" v:langID="1033" v:cal="0"/>
				<v:cp v:nameU="Manufacturer" v:lbl="Manufacturer" v:prompt="" v:type="0" v:format="" v:sortKey="Equipment"
						v:invis="false" v:ask="false" v:langID="1033" v:cal="0"/>
				<v:cp v:nameU="ProductNumber" v:lbl="Product Number" v:prompt="" v:type="0" v:format="" v:sortKey="Equipment"
						v:invis="false" v:ask="false" v:langID="1033" v:cal="0"/>
				<v:cp v:nameU="PartNumber" v:lbl="Part Number" v:prompt="" v:type="0" v:format="" v:sortKey="Equipment"
						v:invis="false" v:ask="false" v:langID="1033" v:cal="0"/>
				<v:cp v:nameU="ProductDescription" v:lbl="Product Description" v:prompt="" v:type="0" v:format=""
						v:sortKey="Equipment" v:invis="false" v:ask="false" v:langID="1033" v:cal="0"/>
				<v:cp v:nameU="NetworkName" v:lbl="Network Name" v:prompt="" v:type="0" v:format="" v:sortKey="Network"
						v:invis="false" v:ask="false" v:langID="1033" v:cal="0"/>
				<v:cp v:nameU="IPAddress" v:lbl="IP Address" v:prompt="" v:type="0" v:format="" v:sortKey="Network" v:invis="false"
						v:ask="false" v:langID="1033" v:cal="0"/>
				<v:cp v:nameU="SubnetMask" v:lbl="Subnet Mask" v:prompt="" v:type="0" v:format="" v:sortKey="Network"
						v:invis="false" v:ask="false" v:langID="1033" v:cal="0"/>
				<v:cp v:nameU="AdminInterface" v:lbl="Administrative Interface" v:prompt="" v:type="0" v:format=""
						v:sortKey="Network" v:invis="false" v:ask="false" v:langID="1033" v:cal="0"/>
				<v:cp v:nameU="NumberofPorts" v:lbl="Number of Ports" v:prompt="" v:type="0" v:format="" v:sortKey="Network"
						v:invis="false" v:ask="false" v:langID="1033" v:cal="0"/>
				<v:cp v:nameU="CommunityString" v:lbl="Community String" v:prompt="" v:type="0" v:format="" v:sortKey="Network"
						v:invis="false" v:ask="false" v:langID="1033" v:cal="0"/>
				<v:cp v:nameU="NetworkDescription" v:lbl="Network Description" v:prompt="" v:type="0" v:format=""
						v:sortKey="Network" v:invis="false" v:ask="false" v:langID="1033" v:cal="0"/>
				<v:cp v:nameU="MACAddress" v:lbl="MAC Address" v:prompt="" v:type="0" v:format="" v:sortKey="Network"
						v:invis="false" v:ask="false" v:langID="1033" v:cal="0"/>
				<v:cp v:nameU="CPU" v:lbl="CPU" v:prompt="" v:type="0" v:format="" v:sortKey="Workstation" v:invis="false"
						v:ask="false" v:langID="1033" v:cal="0"/>
				<v:cp v:nameU="Memory" v:lbl="Memory" v:prompt="" v:type="0" v:format="" v:sortKey="Workstation" v:invis="false"
						v:ask="false" v:langID="1033" v:cal="0"/>
				<v:cp v:nameU="OperatingSystem" v:lbl="Operating System" v:prompt="" v:type="0" v:format="" v:sortKey="Workstation"
						v:invis="false" v:ask="false" v:langID="1033" v:cal="0"/>
				<v:cp v:nameU="HardDriveSize" v:lbl="Hard Drive Capacity" v:prompt="" v:type="0" v:format=""
						v:sortKey="Workstation" v:invis="false" v:ask="false" v:langID="1033" v:cal="0"/>
				<v:cp v:nameU="ShapeClass" v:lbl="ShapeClass" v:prompt="" v:type="0" v:format="" v:sortKey="" v:invis="true"
						v:ask="false" v:langID="1033" v:cal="0" v:val="VT4(Equipment)"/>
				<v:cp v:nameU="ShapeType" v:lbl="ShapeType" v:prompt="" v:type="0" v:format="" v:sortKey="" v:invis="true"
						v:ask="false" v:langID="1033" v:cal="0" v:val="VT4(Terminal)"/>
			</v:custProps>
			<v:userDefs>
				<v:ud v:nameU="visVersion" v:prompt="" v:val="VT0(15):26"/>
				<v:ud v:nameU="ShapeClass" v:prompt="" v:val="VT0(5):26"/>
				<v:ud v:nameU="SolSH" v:prompt="" v:val="VT15({BF0433D9-CD73-4EB5-8390-8653BE590246}):41"/>
				<v:ud v:nameU="visLegendShape" v:prompt="" v:val="VT0(2):26"/>
			</v:userDefs>
			<title>Terminal</title>
			<g id="shape21-52" v:mID="21" v:groupContext="shape" transform="translate(0,-2.26934)">
				<title>Sheet.21</title>
				<path d="M44.9 160.05 L2.74 160.05 L2.74 183.19 L44.9 183.19 L44.9 160.05 ZM47.17 194.3 L40.1 187.01 L7.08 187.01
							 L0 194.3 L47.17 194.3 ZM27.29 183.19 L19.88 183.19 L19.88 187.01 L27.29 187.01 L27.29 183.19 Z"
						class="st10"/>
			</g>
			<g id="shape22-54" v:mID="22" v:groupContext="shape" transform="translate(5.47812,-15.4699)">
				<title>Sheet.22</title>
				<v:userDefs>
					<v:ud v:nameU="SurroundingRegionColor" v:prompt="" v:val="VT0(1):26"/>
					<v:ud v:nameU="SurroundingRegionColor" v:prompt="" v:val="VT5(#000000)"/>
				</v:userDefs>
				<path d="M36.75 175.55 L0 175.55 L0 194.3 L36.75 194.3 L36.75 175.55 Z" class="st10"/>
			</g>
			<g id="shape23-56" v:mID="23" v:groupContext="shape" transform="translate(6.41986,-3.77514)">
				<title>Sheet.23</title>
				<v:userDefs>
					<v:ud v:nameU="SurroundingRegionColor" v:prompt="" v:val="VT0(1):26"/>
					<v:ud v:nameU="SurroundingRegionColor" v:prompt="" v:val="VT5(#000000)"/>
				</v:userDefs>
				<path d="M32.21 191.48 L30.12 191.48 L31.29 192.55 L33.55 192.55 L32.21 191.48 ZM29.84 189.57 L28.04 189.57 L29.3
							 190.73 L31.28 190.73 L29.84 189.57 ZM28.99 191.48 L26.89 191.48 L27.81 192.55 L30.07 192.55 L28.99 191.48
							 ZM27.06 189.57 L25.26 189.57 L26.25 190.73 L28.23 190.73 L27.06 189.57 ZM25.76 191.48 L23.67 191.48
							 L24.34 192.55 L26.6 192.55 L25.76 191.48 ZM24.29 189.57 L22.48 189.57 L23.21 190.75 L25.19 190.75 L24.29
							 189.57 ZM22.54 191.48 L20.44 191.48 L20.86 192.55 L23.12 192.55 L22.54 191.48 ZM21.55 189.65 L19.73
							 189.65 L20.16 190.75 L22.15 190.75 L21.55 189.65 ZM19.31 191.48 L17.22 191.48 L17.38 192.55 L19.64 192.55
							 L19.31 191.48 ZM18.78 189.74 L16.95 189.74 L17.12 190.82 L19.11 190.82 L18.78 189.74 ZM15.96 189.74
							 L14.13 189.74 L14.05 190.82 L16.04 190.82 L15.96 189.74 ZM16.09 191.48 L13.99 191.48 L13.91 192.55 L16.17
							 192.55 L16.09 191.48 ZM13.15 189.74 L11.31 189.74 L10.98 190.82 L12.97 190.82 L13.15 189.74 ZM12.86
							 191.48 L10.77 191.48 L10.43 192.55 L12.69 192.55 L12.86 191.48 ZM24.36 193.23 L9.57 193.23 L9.19 194.3
							 L25.01 194.3 L24.36 193.23 ZM10.33 189.74 L8.49 189.74 L7.91 190.82 L9.9 190.82 L10.33 189.74 ZM9.64
							 191.48 L7.54 191.48 L6.95 192.55 L9.21 192.55 L9.64 191.48 ZM7.51 189.74 L5.68 189.74 L4.83 190.82 L6.83
							 190.82 L7.51 189.74 ZM6.42 191.48 L4.32 191.48 L3.48 192.55 L5.74 192.55 L6.42 191.48 ZM4.69 189.74
							 L2.86 189.74 L1.76 190.82 L3.76 190.82 L4.69 189.74 ZM3.19 191.48 L1.09 191.48 L0 192.55 L2.26 192.55
							 L3.19 191.48 Z" class="st3"/>
			</g>
		</g>
		<g id="shape24-59" v:mID="24" v:groupContext="shape" transform="translate(331.237,-73.3134)">
			<title>Sheet.24</title>
			<path d="M1.99 189.83 C1.99 191.24 1.22 192.5 0 193.35 L0.98 194.3 C2.53 193.23 3.51 191.63 3.51 189.83 C3.51 188.04
						 2.53 186.44 0.98 185.36 L0 186.32 C1.22 187.16 1.99 188.42 1.99 189.83 Z" class="st11"/>
		</g>
		<g id="shape25-61" v:mID="25" v:groupContext="shape" transform="translate(334.517,-70.1151)">
			<title>Sheet.25</title>
			<path d="M3.8 186.64 C3.8 189.33 2.32 191.73 0 193.35 L0.99 194.3 C3.64 192.46 5.33 189.71 5.33 186.64 C5.33 183.56 3.63
						 180.81 0.98 178.96 L0 179.92 C2.32 181.53 3.8 183.94 3.8 186.64 Z" class="st11"/>
		</g>
		<g id="shape26-63" v:mID="26" v:groupContext="shape" transform="translate(319.713,-73.4855)">
			<title>Sheet.26</title>
			<path d="M1.52 189.83 C1.52 188.42 2.3 187.16 3.52 186.31 L2.54 185.36 C0.99 186.43 0 188.04 0 189.83 C0 191.62 0.99
						 193.23 2.53 194.3 L3.51 193.35 C2.3 192.5 1.52 191.24 1.52 189.83 Z" class="st11"/>
		</g>
		<g id="shape27-65" v:mID="27" v:groupContext="shape" transform="translate(314.62,-70.2886)">
			<title>Sheet.27</title>
			<path d="M1.52 186.63 C1.52 183.94 3 181.53 5.33 179.92 L4.35 178.96 C1.69 180.81 0 183.56 0 186.63 C0 189.71 1.69 192.46
						 4.34 194.3 L5.32 193.35 C3 191.73 1.52 189.33 1.52 186.63 Z" class="st11"/>
		</g>
		<g id="shape28-67" v:mID="28" v:groupContext="shape" transform="translate(323.855,-68.1755)">
			<title>Sheet.28</title>
			<path d="M4.64 194.3 L4.64 187.94 C6.16 187.59 7.28 186.43 7.28 185.06 C7.28 183.41 5.65 182.07 3.64 182.07 C1.63 182.07
						 0 183.41 0 185.06 C0 186.43 1.12 187.59 2.65 187.94 L2.65 194.3 L4.64 194.3 Z" class="st12"/>
		</g>
		<g id="shape29-69" v:mID="29" v:groupContext="shape" transform="translate(309.041,-49.3559)">
			<title>Sheet.29</title>
			<desc>EVE</desc>
			<v:textBlock v:margins="rect(4,4,4,4)"/>
			<v:textRect cx="18.5036" cy="185.02" width="37.01" height="18.569"/>
			<rect x="0" y="175.736" width="37.0072" height="18.569" class="st13"/>
			<text x="6.84" y="188.62" class="st15" v:langID="1033"><v:paragraph v:horizAlign="1"/><v:tabList/>EVE</text>		</g>
		<g id="shape30-74" v:mID="30" v:groupContext="shape" transform="translate(26.156,-51.5337)">
			<title>Sheet.30</title>
			<desc>SC modulation</desc>
			<v:textBlock v:margins="rect(4,4,4,4)"/>
			<v:textRect cx="47.1127" cy="185.135" width="94.23" height="18.3397"/>
			<rect x="0" y="175.965" width="94.2254" height="18.3397" class="st7"/>
			<text x="10.94" y="188.73" class="st9" v:langID="1033"><v:paragraph v:horizAlign="1"/><v:tabList/>SC modulation</text>		</g>
		<g id="shape31-78" v:mID="31" v:groupContext="shape" transform="translate(280.119,-14.625)">
			<title>Sheet.31</title>
			<desc>Eavesdropper</desc>
			<v:textBlock v:margins="rect(4,4,4,4)"/>
			<v:textRect cx="47.1127" cy="185.135" width="94.23" height="18.3397"/>
			<rect x="0" y="175.965" width="94.2254" height="18.3397" class="st7"/>
			<text x="14.13" y="188.73" class="st15" v:langID="1033"><v:paragraph v:horizAlign="1"/><v:tabList/>Eavesdropper</text>		</g>
		<g id="shape32-82" v:mID="32" v:groupContext="shape" transform="translate(123.706,-115.053) rotate(11.0781)">
			<title>Sheet.32</title>
			<path d="M0 194.3 L209.03 194.3" class="st16"/>
		</g>
		<g id="shape33-88" v:mID="33" v:groupContext="shape" transform="translate(183.689,-102.65) rotate(11)">
			<title>Sheet.33</title>
			<desc>ISI Channel</desc>
			<v:textBlock v:margins="rect(4,4,4,4)"/>
			<v:textRect cx="40.1434" cy="188.215" width="80.29" height="12.1789"/>
			<rect x="0" y="182.126" width="80.2868" height="12.1789" class="st7"/>
			<text x="11.31" y="191.82" class="st15" v:langID="1033"><v:paragraph v:horizAlign="1"/><v:tabList/>ISI Channel</text>		</g>
		<g id="shape35-92" v:mID="35" v:groupContext="shape" transform="translate(-40.5617,-81.337) rotate(-39.9802)">
			<title>Sheet.35</title>
			<path d="M0 194.3 L39.25 194.3" class="st16"/>
		</g>
		<g id="shape36-97" v:mID="36" v:groupContext="shape" transform="translate(-107.401,18.7846) rotate(-76.2723)">
			<title>Sheet.36</title>
			<path d="M0 194.3 L41.05 194.3" class="st16"/>
		</g>
	</g>
</svg>
